<svg xmlns="http://www.w3.org/2000/svg" xmlns:xlink="http://www.w3.org/1999/xlink" width="40" height="40" viewBox="0 0 40 40">
  <defs>
    <clipPath id="clip-path">
      <rect id="Rectangle_2805" data-name="Rectangle 2805" width="40" height="40" transform="translate(21 116)" fill="#fff"/>
    </clipPath>
  </defs>
  <g id="Mask_Group_19" data-name="Mask Group 19" transform="translate(-21 -116)" clip-path="url(#clip-path)">
    <g id="laptop-1145603" transform="translate(14.485 114.788)">
      <path id="Path_7509" data-name="Path 7509" d="M31.7,16.129H30.589a4.139,4.139,0,0,0-.516-1.211l.795-.795a.093.093,0,0,0,.027-.066.092.092,0,0,0-.027-.065L29.555,12.68a.094.094,0,0,0-.131,0L28.6,13.5a4.152,4.152,0,0,0-1.176-.454V11.962a.093.093,0,0,0-.093-.093H25.474a.093.093,0,0,0-.093.093v1.145a4.155,4.155,0,0,0-1.1.486l-.833-.833a.093.093,0,0,0-.131,0l-1.313,1.313a.093.093,0,0,0-.027.066.09.09,0,0,0,.027.065l.862.863a4.156,4.156,0,0,0-.428,1.064H21.324a.093.093,0,0,0-.093.093v1.856a.093.093,0,0,0,.093.093h1.115a4.143,4.143,0,0,0,.428,1.064l-.783.783a.094.094,0,0,0,0,.132L23.4,21.463a.094.094,0,0,0,.132,0l.753-.753a4.158,4.158,0,0,0,1.1.486V22.34a.093.093,0,0,0,.093.094H27.33a.093.093,0,0,0,.094-.093V21.254A4.161,4.161,0,0,0,28.6,20.8l.745.745a.093.093,0,0,0,.065.027.091.091,0,0,0,.065-.027l1.313-1.313a.093.093,0,0,0,0-.131l-.715-.716a4.137,4.137,0,0,0,.516-1.211H31.7a.093.093,0,0,0,.093-.093V16.224a.094.094,0,0,0-.093-.095Zm-3.685,2.524a2.125,2.125,0,1,1,.623-1.5A2.125,2.125,0,0,1,28.018,18.654Z" fill="#fff"/>
      <path id="Path_7510" data-name="Path 7510" d="M46.454,32.453l-4.466-5.62V9.622a2.54,2.54,0,0,0-2.537-2.537H13.578a2.54,2.54,0,0,0-2.537,2.537V26.833l-4.466,5.62a.283.283,0,0,0-.042.278L7,33.945a.28.28,0,0,0,.1.127L8.8,35.286a.282.282,0,0,0,.165.053H44.068a.282.282,0,0,0,.165-.053l1.693-1.214a.279.279,0,0,0,.1-.127l.471-1.214a.279.279,0,0,0-.041-.278ZM33.91,32.8a.283.283,0,0,1-.225.112H19.345a.282.282,0,0,1-.27-.36l.617-2.136a.282.282,0,0,1,.271-.2H33.069a.283.283,0,0,1,.271.2l.617,2.136a.287.287,0,0,1-.047.248Zm5.071-8.874a.282.282,0,0,1-.282.282H14.33a.282.282,0,0,1-.282-.282V10.373a.282.282,0,0,1,.282-.282H38.7a.282.282,0,0,1,.282.282V23.924Z" fill="#fff"/>
    </g>
  </g>
</svg>
