<svg xmlns="http://www.w3.org/2000/svg" xmlns:xlink="http://www.w3.org/1999/xlink" width="60" height="60" viewBox="0 0 60 60">
  <defs>
    <clipPath id="clip-path">
      <rect id="Rectangle_168" data-name="Rectangle 168" width="60" height="60" transform="translate(637 217)" fill="#fff" stroke="#707070" stroke-width="1"/>
    </clipPath>
  </defs>
  <g id="Mask_Group_24" data-name="Mask Group 24" transform="translate(-637 -217)" clip-path="url(#clip-path)">
    <g id="Interface" transform="translate(627.207 207.197)">
      <path id="Path_325" data-name="Path 325" d="M48.919,46.7H30.666a.777.777,0,0,1-.777-.777V27.668a.777.777,0,0,1,.777-.777H48.919a.777.777,0,0,1,.777.777V45.921A.777.777,0,0,1,48.919,46.7ZM31.443,45.144h16.7v-16.7h-16.7Z" fill="#fb0"/>
      <g id="Group_136" data-name="Group 136">
        <path id="Path_326" data-name="Path 326" d="M67.461,9.938H12.124a2.334,2.334,0,0,0-2.332,2.332V54.591a2.334,2.334,0,0,0,2.332,2.332H33.467a6.249,6.249,0,0,1-1.779,6.16l-1.061.99H28.29a2.8,2.8,0,0,0,0,5.6H51.3a2.8,2.8,0,1,0,0-5.6H48.959l-1.061-.99a6.249,6.249,0,0,1-1.78-6.161H67.461a2.334,2.334,0,0,0,2.332-2.332V12.269a2.334,2.334,0,0,0-2.332-2.332ZM52.539,66.87A1.244,1.244,0,0,1,51.3,68.114H28.29a1.244,1.244,0,1,1,0-2.487H51.3A1.244,1.244,0,0,1,52.539,66.87Zm-5.854-2.8H32.9a7.8,7.8,0,0,0,2.165-7.15H44.52a7.8,7.8,0,0,0,2.165,7.15ZM12.124,11.492H67.461a.777.777,0,0,1,.777.777V18.5H11.347V12.269A.777.777,0,0,1,12.124,11.492ZM67.461,55.368H12.124a.777.777,0,0,1-.777-.777V20.052H68.238V54.591A.777.777,0,0,1,67.461,55.368Z" fill="#00a1f1" opacity="0.4"/>
        <path id="Path_327" data-name="Path 327" d="M16.206,17.437a2.254,2.254,0,1,0-2.254-2.254A2.254,2.254,0,0,0,16.206,17.437Zm0-2.953a.7.7,0,1,1-.7.7A.7.7,0,0,1,16.206,14.484Z" fill="#fb0"/>
        <path id="Path_328" data-name="Path 328" d="M21.957,17.437A2.254,2.254,0,1,0,19.7,15.183,2.254,2.254,0,0,0,21.957,17.437Zm0-2.953a.7.7,0,1,1-.7.7A.7.7,0,0,1,21.957,14.484Z" fill="#fb0"/>
        <path id="Path_329" data-name="Path 329" d="M27.708,17.437a2.254,2.254,0,1,0-2.254-2.254A2.254,2.254,0,0,0,27.708,17.437Zm0-2.953a.7.7,0,1,1-.7.7A.7.7,0,0,1,27.708,14.484Z" fill="#fb0"/>
        <path id="Path_330" data-name="Path 330" d="M54.819,15.96h9.016a.777.777,0,0,0,0-1.554H54.819a.777.777,0,1,0,0,1.554Z" fill="#fb0"/>
        <path id="Path_331" data-name="Path 331" d="M43.927,32.881,38.58,38.228l-2.875-2.875a.777.777,0,1,0-1.1,1.1l3.424,3.425a.777.777,0,0,0,1.1,0l5.9-5.9a.777.777,0,1,0-1.1-1.1Z" fill="#7cbb00"/>
      </g>
    </g>
  </g>
</svg>
