<svg xmlns="http://www.w3.org/2000/svg" xmlns:xlink="http://www.w3.org/1999/xlink" width="40" height="40" viewBox="0 0 40 40">
  <defs>
    <clipPath id="clip-path">
      <rect id="Rectangle_170" data-name="Rectangle 170" width="40" height="40" transform="translate(21 116)" fill="#fff"/>
    </clipPath>
  </defs>
  <g id="Mask_Group_22" data-name="Mask Group 22" transform="translate(-21 -116)" clip-path="url(#clip-path)">
    <g id="support-137352" transform="translate(9.625 110.656)">
      <path id="Path_7513" data-name="Path 7513" d="M48.446,19.348h-.272a17.7,17.7,0,0,0-33.6,0H14.3a2.936,2.936,0,0,0-2.927,2.927v5.331A2.936,2.936,0,0,0,14.3,30.533h.48a2.935,2.935,0,0,0,2.927-2.928v-5.33a2.923,2.923,0,0,0-1.427-2.5,15.95,15.95,0,0,1,30.185,0,2.921,2.921,0,0,0-1.427,2.5v5.331a2.923,2.923,0,0,0,1.427,2.5A16,16,0,0,1,34,40.675a1.551,1.551,0,0,0-1.207-.587H29.957A1.561,1.561,0,0,0,28.4,41.645V41.9a1.561,1.561,0,0,0,1.557,1.558h2.837a1.56,1.56,0,0,0,1.464-1.046A17.761,17.761,0,0,0,48.176,30.534h.272a2.936,2.936,0,0,0,2.927-2.928V22.275a2.936,2.936,0,0,0-2.927-2.928Z" fill="#fff"/>
      <path id="Path_7514" data-name="Path 7514" d="M42.5,24.941a.586.586,0,0,1,.586-.586h1.4a13.053,13.053,0,0,0-1.462-5.462l-1.215.7a.586.586,0,0,1-.586-1.015l1.213-.7a13.207,13.207,0,0,0-4-4l-.7,1.214a.586.586,0,1,1-1.015-.586l.7-1.215A13.058,13.058,0,0,0,31.96,11.83v1.4a.586.586,0,1,1-1.172,0v-1.4a13.058,13.058,0,0,0-5.462,1.463l.7,1.213a.586.586,0,0,1-1.015.586l-.7-1.212a13.191,13.191,0,0,0-4,4l1.212.7a.586.586,0,1,1-.586,1.015l-1.213-.7a13.053,13.053,0,0,0-1.462,5.462h1.4a.586.586,0,1,1,0,1.172h-1.4a13.038,13.038,0,0,0,1.463,5.462l1.212-.7a.586.586,0,1,1,.586,1.015l-1.211.7a13.182,13.182,0,0,0,4,4l.7-1.212a.586.586,0,0,1,1.015.586l-.7,1.213a13.053,13.053,0,0,0,5.461,1.462v-1.4a.586.586,0,1,1,1.172,0v1.4a13.051,13.051,0,0,0,5.461-1.462l-.7-1.213a.586.586,0,0,1,1.015-.586l.7,1.212a13.186,13.186,0,0,0,4-4l-1.212-.7a.586.586,0,1,1,.585-1.015l1.213.7a13.042,13.042,0,0,0,1.463-5.462h-1.4a.586.586,0,0,1-.586-.586Zm-2.879-4.025L32.886,24.67a1.571,1.571,0,0,1,.028.271,1.537,1.537,0,0,1-3.034.347L24.038,22.24a1,1,0,0,1,.925-1.773L30.8,23.513A1.513,1.513,0,0,1,32.4,23.8l6.734-3.756a.5.5,0,1,1,.487.874Z" fill="#fff"/>
    </g>
  </g>
</svg>
