<svg xmlns="http://www.w3.org/2000/svg" width="217.015" height="42.902" viewBox="0 0 217.015 42.902">
  <g id="Codevision_Logo_SVG" transform="translate(-1.991 -3.2)">
    <g id="Group_9" data-name="Group 9" transform="translate(1.991 3.2)">
      <g id="Group_1" data-name="Group 1" transform="translate(0 1.129)">
        <path id="Path_1" data-name="Path 1" d="M6.076,29.893c-1.806,0-2.935-.452-3.613-1.581a4.271,4.271,0,0,1-.226-3.387L5.85,8.668A3.714,3.714,0,0,1,7.656,5.281,5.442,5.442,0,0,1,11.721,3.7H13.3L7.431,29.893Zm14.677-1.355a5.323,5.323,0,0,0,2.032-3.613l.677-3.387h-6.1l-.452,2.484a.486.486,0,0,1-.452.452H10.14L9.011,29.893h7.677A5.52,5.52,0,0,0,20.753,28.538Zm-.9-18.967L19.4,12.055H25.72L26.4,8.668c.226-1.581.226-2.71-.452-3.613A3.962,3.962,0,0,0,22.559,3.7h-7.9L13.527,9.119h6.1C19.85,9.119,20.075,9.345,19.85,9.571Z" transform="translate(-1.991 -3.7)" fill="#00a1f1"/>
      </g>
      <g id="Group_2" data-name="Group 2" transform="translate(47.89 0.903)">
        <path id="Path_2" data-name="Path 2" d="M39.006,29.893H31.329l1.129-5.419H38.1a.486.486,0,0,0,.452-.452L41.716,9.571c0-.226,0-.452-.226-.452H34.264L29.748,29.893H23.2L29.071,3.7H44.877a3.355,3.355,0,0,1,2.935,1.355,4.252,4.252,0,0,1,.677,3.387L44.877,25.151a4.391,4.391,0,0,1-2.032,3.161A5.288,5.288,0,0,1,39.006,29.893Z" transform="translate(-23.2 -3.474)" fill="#00a1f1"/>
        <path id="Path_3" data-name="Path 3" d="M44.864,9.119,41.477,24.474H54.348l-1.129,5.419H33.8L39.671,3.7H59.09L57.961,9.119ZM54.122,19.28H43.961l1.129-5.419H55.251Z" transform="translate(-9.865 -3.474)" fill="#00a1f1"/>
        <path id="Path_4" data-name="Path 4" d="M53.88,21.087l-4.516,8.58h-.226L45.3,3.7h6.548Zm2.71,8.806H50.945l14-26.193h7Z" transform="translate(4.602 -3.474)" fill="#00a1f1"/>
        <path id="Path_5" data-name="Path 5" d="M67.519,3.7,61.648,29.893H55.1L60.971,3.7Z" transform="translate(16.931 -3.474)" fill="#00a1f1"/>
        <path id="Path_6" data-name="Path 6" d="M73.082,24.474l-1.129,5.419H64.276c-1.806,0-2.935-.452-3.613-1.581a4.271,4.271,0,0,1-.226-3.387l.677-2.935h6.322l-.452,2.032c0,.226,0,.452.226.452Zm1.806,5.419H73.308l2.032-9.032c0-.226,0-.452-.226-.452l-6.322-1.581a9.78,9.78,0,0,0-1.129-.226,4.594,4.594,0,0,1-1.129-.226,4.594,4.594,0,0,0-1.129-.226c-.677-.226-.9-.452-1.129-.452l-.677-.677a1.173,1.173,0,0,1-.452-.9V14.99a4.408,4.408,0,0,1,.226-1.581l.9-4.742a4.416,4.416,0,0,1,2.032-3.387A6.51,6.51,0,0,1,70.6,3.926h1.355l-2.032,9.032c0,.226,0,.452.226.452l6.322,1.355a1.707,1.707,0,0,1,.9.226c.452,0,.677.226.9.226a1.707,1.707,0,0,1,.9.226c.452,0,.677.226.9.226s.452.226.677.452.452.226.677.452.226.452.452.677.226.452.226.9V19.28a2.864,2.864,0,0,1-.226,1.355L80.759,25.6a7.994,7.994,0,0,1-2.032,3.613A14.741,14.741,0,0,1,74.888,29.893ZM77.6,9.119H71.953L73.308,3.7h7.226A3.962,3.962,0,0,1,83.92,5.055,4.6,4.6,0,0,1,84.6,8.668L83.92,11.6H77.6l.452-2.032C78.05,9.345,78.05,9.119,77.6,9.119Z" transform="translate(23.335 -3.474)" fill="#00a1f1"/>
        <path id="Path_7" data-name="Path 7" d="M82.419,3.7,76.548,29.893H70L75.871,3.7Z" transform="translate(35.675 -3.474)" fill="#00a1f1"/>
        <path id="Path_8" data-name="Path 8" d="M90.792,29.767h-8.58l1.129-5.419h6.774a.486.486,0,0,0,.452-.452L93.727,9.445c0-.226,0-.452-.226-.452H85.6a.486.486,0,0,0-.452.452L80.631,29.767H79.276c-1.806,0-2.935-.452-3.613-1.581a4.271,4.271,0,0,1-.226-3.387L79.05,8.542c.452-1.581.9-2.71,2.032-3.387A6.51,6.51,0,0,1,85.372,3.8H96.888a3.962,3.962,0,0,1,3.387,1.355,3.856,3.856,0,0,1,.452,3.613L97.114,25.025a5.324,5.324,0,0,1-2.032,3.613A9.34,9.34,0,0,1,90.792,29.767Z" transform="translate(42.205 -3.348)" fill="#00a1f1"/>
        <path id="Path_9" data-name="Path 9" d="M91.371,3.826h6.322L91.822,30.019H85.5Zm10.613,26.193L96.338,17.148,98.822,5.632l5.419,13.1L107.629,3.6h6.322L108.08,29.793h-6.1Z" transform="translate(55.174 -3.6)" fill="#00a1f1"/>
      </g>
      <g id="Group_5" data-name="Group 5" transform="translate(28.697)">
        <g id="Group_4" data-name="Group 4">
          <g id="Group_3" data-name="Group 3">
            <path id="Path_10" data-name="Path 10" d="M14.7,3.2" transform="translate(-14.7 -3.2)" fill="#faba05"/>
          </g>
        </g>
      </g>
      <g id="Group_8" data-name="Group 8" transform="translate(24.387 1.129)">
        <g id="Group_6" data-name="Group 6" transform="translate(0 5.419)">
          <path id="Path_11" data-name="Path 11" d="M22.747,6.1,18.231,26.874H16.876c-1.806,0-2.935-.452-3.613-1.581a4.271,4.271,0,0,1-.226-3.387L16.65,6.1" transform="translate(-12.791 -6.1)" fill="#f65314"/>
        </g>
        <g id="Group_7" data-name="Group 7" transform="translate(6.794 5.419)">
          <path id="Path_12" data-name="Path 12" d="M33.864,6.1,30.477,21.906a5.323,5.323,0,0,1-2.032,3.613,6.3,6.3,0,0,1-4.064,1.355H15.8l1.129-5.419H23.7A.486.486,0,0,0,24.155,21L27.542,6.1" transform="translate(-15.8 -6.1)" fill="#7cbb00"/>
        </g>
        <path id="Path_13" data-name="Path 13" d="M32.69,3.7c4.29.226,3.613,4.29,3.161,5.419H14.4C15.3,3.926,19.142,3.7,20.271,3.7h0" transform="translate(-10.767 -3.7)" fill="#fb0"/>
      </g>
    </g>
    <g id="Group_10" data-name="Group 10" transform="translate(2.011 37.522)">
      <path id="Path_14" data-name="Path 14" d="M5.839,26.755H4.484V19.529H2V18.4H8.322v1.129H5.839Z" transform="translate(-2 -18.4)" fill="#fff"/>
      <path id="Path_15" data-name="Path 15" d="M10.542,26.755H5.8V18.4h4.742v1.129H7.155v2.258h3.161v1.129H7.155v2.71h3.387Z" transform="translate(2.78 -18.4)" fill="#fff"/>
      <path id="Path_16" data-name="Path 16" d="M12.839,19.529a2.054,2.054,0,0,0-1.806.9,3.815,3.815,0,0,0-.677,2.258,3,3,0,0,0,.677,2.258,2.564,2.564,0,0,0,1.806.677h1.129A9.78,9.78,0,0,1,15.1,25.4v1.129a6.68,6.68,0,0,1-2.258.452A4.293,4.293,0,0,1,9.9,25.851,4.414,4.414,0,0,1,9,22.69a6.68,6.68,0,0,1,.452-2.258,3.036,3.036,0,0,1,1.355-1.581,3.356,3.356,0,0,1,2.032-.452,6.68,6.68,0,0,1,2.258.452l-.452,1.129c-.226-.226-.677-.226-.9-.452Z" transform="translate(6.806 -18.4)" fill="#fff"/>
      <path id="Path_17" data-name="Path 17" d="M19.348,26.755H17.993V22.916H14.155v3.839H12.8V18.4h1.355v3.387h3.839V18.4h1.355Z" transform="translate(11.587 -18.4)" fill="#fff"/>
      <path id="Path_18" data-name="Path 18" d="M23.974,26.755H22.393l-4.064-6.774h0v6.774H17.2V18.4h1.581l4.064,6.548h0V18.4H24.2v8.355Z" transform="translate(17.122 -18.4)" fill="#fff"/>
      <path id="Path_19" data-name="Path 19" d="M29.429,22.69A4.467,4.467,0,0,1,28.3,25.851a3.9,3.9,0,0,1-2.935,1.129,3.9,3.9,0,0,1-2.935-1.129A4.467,4.467,0,0,1,21.3,22.69a4.467,4.467,0,0,1,1.129-3.161A3.9,3.9,0,0,1,25.364,18.4,4.293,4.293,0,0,1,28.3,19.529,4.467,4.467,0,0,1,29.429,22.69Zm-6.548,0a3,3,0,0,0,.677,2.258,2.788,2.788,0,0,0,1.806.9,2.223,2.223,0,0,0,1.806-.677,3.371,3.371,0,0,0,.677-2.258,3,3,0,0,0-.677-2.258,2.787,2.787,0,0,0-1.806-.9,1.833,1.833,0,0,0-1.806.9Q22.881,21,22.881,22.69Z" transform="translate(22.28 -18.4)" fill="#fff"/>
      <path id="Path_20" data-name="Path 20" d="M26.1,26.755V18.4h1.355v7.226h3.613v1.129Z" transform="translate(28.318 -18.4)" fill="#fff"/>
      <path id="Path_21" data-name="Path 21" d="M37.129,22.69A4.467,4.467,0,0,1,36,25.851a3.9,3.9,0,0,1-2.935,1.129,3.9,3.9,0,0,1-2.935-1.129A4.467,4.467,0,0,1,29,22.69a4.467,4.467,0,0,1,1.129-3.161A3.9,3.9,0,0,1,33.064,18.4,4.293,4.293,0,0,1,36,19.529,4.467,4.467,0,0,1,37.129,22.69Zm-6.548,0a3,3,0,0,0,.677,2.258,2.788,2.788,0,0,0,1.806.9,2.223,2.223,0,0,0,1.806-.677,3.371,3.371,0,0,0,.677-2.258,3,3,0,0,0-.677-2.258,2.788,2.788,0,0,0-1.806-.9,1.833,1.833,0,0,0-1.806.9Q30.581,21,30.581,22.69Z" transform="translate(31.966 -18.4)" fill="#fff"/>
      <path id="Path_22" data-name="Path 22" d="M37.439,22.239H40.6v4.29c-.452.226-.9.226-1.355.452H37.664a3.9,3.9,0,0,1-2.935-1.129A4.467,4.467,0,0,1,33.6,22.69a4.467,4.467,0,0,1,1.129-3.161A4.467,4.467,0,0,1,37.89,18.4a8.117,8.117,0,0,1,2.484.452l-.452,1.129a6.593,6.593,0,0,0-2.032-.452,2.2,2.2,0,0,0-2.032.9,3.815,3.815,0,0,0-.677,2.258,3,3,0,0,0,.677,2.258,3.135,3.135,0,0,0,3.387.677V23.368H37.439Z" transform="translate(37.753 -18.4)" fill="#fff"/>
      <path id="Path_23" data-name="Path 23" d="M38,26.755V18.4h1.355v8.355Z" transform="translate(43.288 -18.4)" fill="#fff"/>
      <path id="Path_24" data-name="Path 24" d="M44.642,26.755H39.9V18.4h4.742v1.129H41.255v2.258h3.387v1.129H41.481v2.71h3.161Z" transform="translate(45.679 -18.4)" fill="#fff"/>
      <path id="Path_25" data-name="Path 25" d="M48.419,24.5a2.054,2.054,0,0,1-.9,1.806,3.815,3.815,0,0,1-2.258.677A5.666,5.666,0,0,1,43,26.529V25.174c.452.226.677.226,1.129.452a2.455,2.455,0,0,0,1.129.226,1.692,1.692,0,0,0,1.129-.226,1.173,1.173,0,0,0,.452-.9,1.712,1.712,0,0,0-.452-.9,3.676,3.676,0,0,0-1.355-.677,2.88,2.88,0,0,1-1.581-1.129A3.209,3.209,0,0,1,43,20.658a1.758,1.758,0,0,1,.677-1.581A4.286,4.286,0,0,1,45.71,18.4a9.6,9.6,0,0,1,2.484.452l-.452,1.129a6.593,6.593,0,0,0-2.032-.452c-.452,0-.677,0-.9.226s-.452.452-.452.677,0,.452.226.452c0,.226.226.226.452.452s.677.226,1.129.452a3.676,3.676,0,0,1,1.355.677l.677.677A3.972,3.972,0,0,1,48.419,24.5Z" transform="translate(49.579 -18.4)" fill="#fff"/>
      <path id="Path_26" data-name="Path 26" d="M53.845,20.884a2.2,2.2,0,0,1-.9,2.032,4.056,4.056,0,0,1-2.484.677h-.9v3.161H48.2V18.4h2.484a3,3,0,0,1,2.258.677A2.054,2.054,0,0,1,53.845,20.884Zm-4.064,1.581h.677a3.264,3.264,0,0,0,1.581-.452,1.637,1.637,0,0,0,0-2.258,1.909,1.909,0,0,0-1.355-.452h-.9Z" transform="translate(56.12 -18.4)" fill="#fff"/>
      <path id="Path_27" data-name="Path 27" d="M53.255,23.468v3.387H51.9V18.5h2.258a4.056,4.056,0,0,1,2.484.677,2.564,2.564,0,0,1,.677,1.806,2.173,2.173,0,0,1-1.581,2.258L58,26.855H56.642L54.61,23.468Zm0-1.129h.9a1.909,1.909,0,0,0,1.355-.452,1.637,1.637,0,0,0,0-2.258c-.226-.226-.677-.226-1.355-.226h-.9Z" transform="translate(60.775 -18.274)" fill="#fff"/>
      <path id="Path_28" data-name="Path 28" d="M55.6,26.755V18.4h1.355v8.355Z" transform="translate(65.429 -18.4)" fill="#fff"/>
      <path id="Path_29" data-name="Path 29" d="M62.971,18.4h1.355L61.39,26.755H60.035L57.1,18.4h1.355l1.806,5.193c0,.226.226.677.226.9s.226.677.226.9c0-.226.226-.677.226-.9,0-.452.226-.677.226-.9Z" transform="translate(67.317 -18.4)" fill="#fff"/>
      <path id="Path_30" data-name="Path 30" d="M67.022,26.755l-.9-2.258H62.958l-.9,2.258H60.7L63.861,18.4h1.581L68.6,26.755Zm-1.129-3.387-.677-2.258c0-.226-.226-.452-.226-.677a2.274,2.274,0,0,0-.226-.677,5.744,5.744,0,0,1-.452,1.581l-.677,2.258,2.258-.226Z" transform="translate(71.845 -18.4)" fill="#fff"/>
      <path id="Path_31" data-name="Path 31" d="M68.439,26.755H67.084V19.529H64.6V18.4h6.322v1.129H68.439v7.226Z" transform="translate(76.752 -18.4)" fill="#fff"/>
      <path id="Path_32" data-name="Path 32" d="M73.142,26.755H68.4V18.4h4.742v1.129H69.755v2.258h3.161v1.129H69.755v2.71h3.387Z" transform="translate(81.532 -18.4)" fill="#fff"/>
      <path id="Path_33" data-name="Path 33" d="M73.5,26.755V18.4h1.355v7.226h3.613v1.129Z" transform="translate(87.948 -18.4)" fill="#fff"/>
      <path id="Path_34" data-name="Path 34" d="M76.7,26.755V18.4h1.355v8.355Z" transform="translate(91.974 -18.4)" fill="#fff"/>
      <path id="Path_35" data-name="Path 35" d="M82.313,26.755l-2.484-7h0v7H78.7V18.4h2.032l2.258,6.548h0L85.474,18.4h2.032v8.355H86.151V19.981h0l-2.484,7H82.313Z" transform="translate(94.49 -18.4)" fill="#fff"/>
      <path id="Path_36" data-name="Path 36" d="M83.9,26.755V18.4h1.355v8.355Z" transform="translate(101.031 -18.4)" fill="#fff"/>
      <path id="Path_37" data-name="Path 37" d="M89.239,26.755H87.884V19.529H85.4V18.4h6.322v1.129H89.239v7.226Z" transform="translate(102.918 -18.4)" fill="#fff"/>
      <path id="Path_38" data-name="Path 38" d="M93.942,26.755H89.2V18.4h4.742v1.129H90.555v2.258h3.161v1.129H90.555v2.71h3.387Z" transform="translate(107.699 -18.4)" fill="#fff"/>
      <path id="Path_39" data-name="Path 39" d="M99.274,22.464a4.467,4.467,0,0,1-1.129,3.161,4.674,4.674,0,0,1-3.387,1.129H92.5V18.4h2.484a4.895,4.895,0,0,1,3.161,1.129A3.467,3.467,0,0,1,99.274,22.464Zm-1.355.226c0-2.032-.9-2.935-2.71-2.935H94.081v6.1h.9C96.79,25.626,97.919,24.722,97.919,22.69Z" transform="translate(111.85 -18.4)" fill="#fff"/>
    </g>
  </g>
</svg>
