<svg xmlns="http://www.w3.org/2000/svg" xmlns:xlink="http://www.w3.org/1999/xlink" width="40" height="40" viewBox="0 0 40 40">
  <defs>
    <clipPath id="clip-path">
      <rect id="Rectangle_170" data-name="Rectangle 170" width="40" height="40" transform="translate(21 116)" fill="#fff"/>
    </clipPath>
  </defs>
  <g id="Mask_Group_20" data-name="Mask Group 20" transform="translate(-21 -116)" clip-path="url(#clip-path)">
    <g id="faq-569373" transform="translate(0.58 103.722)">
      <path id="Path_7511" data-name="Path 7511" d="M46.721,29.208V17.835a3.75,3.75,0,0,0-3.748-3.748h-18.8a3.75,3.75,0,0,0-3.748,3.748V29.208a3.745,3.745,0,0,0,3.037,3.684v3.36a1.525,1.525,0,0,0,.453,1.034,1.316,1.316,0,0,0,.969.388,1.586,1.586,0,0,0,1.034-.388l4.265-4.265H43.1a3.784,3.784,0,0,0,3.618-3.812Zm-12.149-.388a.579.579,0,0,1-.581.581H32.5a.579.579,0,0,1-.581-.581v-.969a.579.579,0,0,1,.581-.581H33.99a.579.579,0,0,1,.581.581ZM36.963,23A4.073,4.073,0,0,1,35.477,24.3a1.87,1.87,0,0,0-.711.711,5.238,5.238,0,0,0-.194.711.417.417,0,0,1-.388.388H32.31a.364.364,0,0,1-.388-.453,3.054,3.054,0,0,1,.388-1.228,5.779,5.779,0,0,1,1.422-1.292,2.1,2.1,0,0,0,.84-.84A2.232,2.232,0,0,0,34.9,21.13a1.631,1.631,0,0,0-.388-1.1,1.365,1.365,0,0,0-1.034-.388,1.2,1.2,0,0,0-1.228.84.621.621,0,0,1-.581.453H29.92a.417.417,0,0,1-.388-.388,2.83,2.83,0,0,1,1.034-2.132,4.382,4.382,0,0,1,2.843-.84,4.223,4.223,0,0,1,2.973.969,3.315,3.315,0,0,1,1.1,2.585A2.773,2.773,0,0,1,36.963,23Z" fill="#fff"/>
      <path id="Path_7512" data-name="Path 7512" d="M56.607,26.947H49.435v2.262a6.481,6.481,0,0,1-6.462,6.462H34.055v6.4A3.75,3.75,0,0,0,37.8,45.816H50.727l4.265,4.265a1.468,1.468,0,0,0,1.034.388A1.315,1.315,0,0,0,57,50.081a1.526,1.526,0,0,0,.453-1.034v-3.36a3.561,3.561,0,0,0,2.972-3.554V30.695a3.765,3.765,0,0,0-3.813-3.748Z" fill="#fff"/>
    </g>
  </g>
</svg>
