<svg xmlns="http://www.w3.org/2000/svg" xmlns:xlink="http://www.w3.org/1999/xlink" width="60" height="60" viewBox="0 0 60 60">
  <defs>
    <clipPath id="clip-path">
      <rect id="Rectangle_2806" data-name="Rectangle 2806" width="60" height="60" transform="translate(-618 -851)" fill="#fff" stroke="#707070" stroke-width="1"/>
    </clipPath>
  </defs>
  <g id="Mask_Group_26" data-name="Mask Group 26" transform="translate(618 851)" clip-path="url(#clip-path)">
    <g id="Programming-2" transform="translate(-627.793 -860.803)">
      <g id="Group_162" data-name="Group 162" opacity="0.4">
        <path id="Path_651" data-name="Path 651" d="M67.461,9.937H12.124a2.334,2.334,0,0,0-2.332,2.332V54.591a2.334,2.334,0,0,0,2.332,2.332H33.467a6.249,6.249,0,0,1-1.78,6.16l-1.061.99H28.29a2.8,2.8,0,0,0,0,5.6H51.3a2.8,2.8,0,1,0,0-5.6H48.959l-1.061-.99a6.249,6.249,0,0,1-1.78-6.16H67.461a2.334,2.334,0,0,0,2.332-2.332V12.269a2.334,2.334,0,0,0-2.332-2.332ZM12.124,11.492H67.461a.777.777,0,0,1,.777.777V18.5H11.347V12.269A.777.777,0,0,1,12.124,11.492ZM52.539,66.87A1.244,1.244,0,0,1,51.3,68.114H28.29a1.244,1.244,0,1,1,0-2.487H51.3A1.244,1.244,0,0,1,52.539,66.87Zm-5.854-2.8H32.9a7.8,7.8,0,0,0,2.165-7.15H44.52a7.8,7.8,0,0,0,2.165,7.15Zm20.776-8.7H12.124a.777.777,0,0,1-.777-.777V20.052H68.238V54.591A.777.777,0,0,1,67.461,55.368Z" fill="#00a1f1"/>
        <path id="Path_652" data-name="Path 652" d="M16.206,17.437a2.254,2.254,0,1,0-2.254-2.254A2.254,2.254,0,0,0,16.206,17.437Zm0-2.953a.7.7,0,1,1-.7.7A.7.7,0,0,1,16.206,14.484Z" fill="#00a1f1"/>
        <path id="Path_653" data-name="Path 653" d="M21.957,17.437A2.254,2.254,0,1,0,19.7,15.183,2.254,2.254,0,0,0,21.957,17.437Zm0-2.953a.7.7,0,1,1-.7.7A.7.7,0,0,1,21.957,14.484Z" fill="#00a1f1"/>
        <path id="Path_654" data-name="Path 654" d="M27.708,17.437a2.254,2.254,0,1,0-2.254-2.254A2.254,2.254,0,0,0,27.708,17.437Zm0-2.953a.7.7,0,1,1-.7.7A.7.7,0,0,1,27.708,14.484Z" fill="#00a1f1"/>
        <path id="Path_655" data-name="Path 655" d="M54.819,15.96h9.016a.777.777,0,0,0,0-1.554H54.819a.777.777,0,1,0,0,1.554Z" fill="#00a1f1"/>
      </g>
      <path id="Path_799" data-name="Path 799" d="M21.6,28.348h-.034a.676.676,0,0,1-.489-.247l-.9-1.1a.676.676,0,1,1,1.046-.856l.424.518,1.415-1.415a.676.676,0,1,1,.955.955L22.081,28.15A.676.676,0,0,1,21.6,28.348Z" transform="translate(5.198 5.21)" fill="#00a1f1"/>
      <g id="Group_175" data-name="Group 175" transform="translate(5.198 5.21)">
        <path id="Path_802" data-name="Path 802" d="M26.243,23.123a.676.676,0,0,0-.676-.676H18.51a.676.676,0,0,0-.676.676V30.18a.676.676,0,0,0,.676.676h7.058a.676.676,0,0,0,.676-.676ZM24.892,29.5H19.185V23.8h5.706Z" fill="#7cbb00"/>
        <path id="Path_803" data-name="Path 803" d="M50.679,25.976H37.669a.676.676,0,1,0,0,1.351H50.679a.676.676,0,1,0,0-1.351Z" fill="#7cbb00"/>
        <path id="Path_804" data-name="Path 804" d="M29.351,27.327h5.614a.676.676,0,0,0,0-1.351H29.351a.676.676,0,0,0,0,1.351Z" fill="#7cbb00"/>
        <path id="Path_805" data-name="Path 805" d="M25.568,33.431H18.51a.676.676,0,0,0-.676.676v7.057a.676.676,0,0,0,.676.676h7.058a.676.676,0,0,0,.676-.676V34.106A.676.676,0,0,0,25.568,33.431Zm-.676,7.057H19.185V34.782h5.706Z" fill="#7cbb00"/>
        <path id="Path_806" data-name="Path 806" d="M50.679,36.959H44.054a.676.676,0,0,0,0,1.351h6.625a.676.676,0,1,0,0-1.351Z" fill="#7cbb00"/>
        <path id="Path_807" data-name="Path 807" d="M29.351,38.311h12a.676.676,0,0,0,0-1.351h-12a.676.676,0,0,0,0,1.351Z" fill="#7cbb00"/>
      </g>
      <path id="Path_808" data-name="Path 808" d="M21.6,39.332h-.034a.676.676,0,0,1-.488-.248l-.9-1.1a.676.676,0,1,1,1.046-.856l.424.518,1.415-1.415a.676.676,0,1,1,.955.955l-1.943,1.943a.676.676,0,0,1-.478.2Z" transform="translate(5.198 5.21)" fill="#00a1f1"/>
    </g>
  </g>
</svg>
