<svg xmlns="http://www.w3.org/2000/svg" xmlns:xlink="http://www.w3.org/1999/xlink" width="60" height="60" viewBox="0 0 60 60">
  <defs>
    <clipPath id="clip-path">
      <rect id="Rectangle_2808" data-name="Rectangle 2808" width="60" height="60" transform="translate(-618 -851)" fill="#fff" stroke="#707070" stroke-width="1"/>
    </clipPath>
  </defs>
  <g id="Mask_Group_29" data-name="Mask Group 29" transform="translate(618 851)" clip-path="url(#clip-path)">
    <g id="Programming-2" transform="translate(-627.793 -860.803)">
      <g id="Group_162" data-name="Group 162" opacity="0.4">
        <path id="Path_651" data-name="Path 651" d="M67.461,9.937H12.124a2.334,2.334,0,0,0-2.332,2.332V54.591a2.334,2.334,0,0,0,2.332,2.332H33.467a6.249,6.249,0,0,1-1.78,6.16l-1.061.99H28.29a2.8,2.8,0,0,0,0,5.6H51.3a2.8,2.8,0,1,0,0-5.6H48.959l-1.061-.99a6.249,6.249,0,0,1-1.78-6.16H67.461a2.334,2.334,0,0,0,2.332-2.332V12.269a2.334,2.334,0,0,0-2.332-2.332ZM12.124,11.492H67.461a.777.777,0,0,1,.777.777V18.5H11.347V12.269A.777.777,0,0,1,12.124,11.492ZM52.539,66.87A1.244,1.244,0,0,1,51.3,68.114H28.29a1.244,1.244,0,1,1,0-2.487H51.3A1.244,1.244,0,0,1,52.539,66.87Zm-5.854-2.8H32.9a7.8,7.8,0,0,0,2.165-7.15H44.52a7.8,7.8,0,0,0,2.165,7.15Zm20.776-8.7H12.124a.777.777,0,0,1-.777-.777V20.052H68.238V54.591A.777.777,0,0,1,67.461,55.368Z" fill="#00a1f1"/>
        <path id="Path_652" data-name="Path 652" d="M16.206,17.437a2.254,2.254,0,1,0-2.254-2.254A2.254,2.254,0,0,0,16.206,17.437Zm0-2.953a.7.7,0,1,1-.7.7A.7.7,0,0,1,16.206,14.484Z" fill="#00a1f1"/>
        <path id="Path_653" data-name="Path 653" d="M21.957,17.437A2.254,2.254,0,1,0,19.7,15.183,2.254,2.254,0,0,0,21.957,17.437Zm0-2.953a.7.7,0,1,1-.7.7A.7.7,0,0,1,21.957,14.484Z" fill="#00a1f1"/>
        <path id="Path_654" data-name="Path 654" d="M27.708,17.437a2.254,2.254,0,1,0-2.254-2.254A2.254,2.254,0,0,0,27.708,17.437Zm0-2.953a.7.7,0,1,1-.7.7A.7.7,0,0,1,27.708,14.484Z" fill="#00a1f1"/>
        <path id="Path_655" data-name="Path 655" d="M54.819,15.96h9.016a.777.777,0,0,0,0-1.554H54.819a.777.777,0,1,0,0,1.554Z" fill="#00a1f1"/>
      </g>
      <path id="Path_687" data-name="Path 687" d="M24.863,28.632H17.191a.563.563,0,0,0-.563.563v7.673a.563.563,0,0,0,.563.563h7.673a.563.563,0,0,0,.563-.563V29.194a.563.563,0,0,0-.563-.563ZM24.3,36.305H17.754V29.757H24.3Z" transform="translate(6.962 -1.384)" fill="#f65314"/>
      <path id="Path_688" data-name="Path 688" d="M24.863,46.666H17.191a.563.563,0,0,0-.563.563V54.9a.563.563,0,0,0,.563.563h7.673a.563.563,0,0,0,.563-.563V47.228a.563.563,0,0,0-.563-.563ZM24.3,54.339H17.754V47.791H24.3Z" transform="translate(6.962 -6.628)" fill="#f65314"/>
      <path id="Path_689" data-name="Path 689" d="M56.293,51.092h-9.41a.563.563,0,0,1,0-1.125h9.41a.563.563,0,1,1,0,1.125Z" transform="translate(-1.671 -7.587)" fill="#f65314"/>
      <path id="Path_690" data-name="Path 690" d="M40.794,51.092H35.471a.563.563,0,0,1,0-1.125h5.323a.563.563,0,1,1,0,1.125Z" transform="translate(1.647 -7.587)" fill="#f65314"/>
      <path id="Path_691" data-name="Path 691" d="M60.4,55.308H55.869a.563.563,0,1,1,0-1.125H60.4a.563.563,0,0,1,0,1.125Z" transform="translate(-4.284 -8.813)" fill="#f65314"/>
      <path id="Path_692" data-name="Path 692" d="M47.167,55.308h-11.7a.563.563,0,0,1,0-1.125h11.7a.563.563,0,0,1,0,1.125Z" transform="translate(1.647 -8.813)" fill="#f65314"/>
      <path id="Path_693" data-name="Path 693" d="M22.6,52.8a.563.563,0,0,1-.563-.563V49.88a.563.563,0,0,1,1.125,0v2.361A.563.563,0,0,1,22.6,52.8Z" transform="translate(5.389 -7.399)" fill="#f65314"/>
      <path id="Path_693-2" data-name="Path 693" d="M22.6,52.8a.563.563,0,0,1-.563-.563V49.88a.563.563,0,0,1,1.125,0v2.361A.563.563,0,0,1,22.6,52.8Z" transform="translate(5.389 -20.044)" fill="#f65314"/>
      <path id="Path_694" data-name="Path 694" d="M22.6,56.19a.563.563,0,0,1-.563-.563v-.14a.563.563,0,1,1,1.125,0v.14A.563.563,0,0,1,22.6,56.19Z" transform="translate(5.389 -9.029)" fill="#f65314"/>
      <path id="Path_694-2" data-name="Path 694" d="M22.6,56.19a.563.563,0,0,1-.563-.563v-.14a.563.563,0,1,1,1.125,0v.14A.563.563,0,0,1,22.6,56.19Z" transform="translate(5.389 -21.674)" fill="#f65314"/>
      <path id="Path_682" data-name="Path 682" d="M56.293,33.058h-9.41a.563.563,0,0,1,0-1.125h9.41a.563.563,0,1,1,0,1.125Z" transform="translate(-1.671 -2.344)" fill="#f65314"/>
      <path id="Path_683" data-name="Path 683" d="M40.794,33.058H35.471a.563.563,0,0,1,0-1.125h5.323a.563.563,0,0,1,0,1.125Z" transform="translate(1.647 -2.344)" fill="#f65314"/>
      <path id="Path_684" data-name="Path 684" d="M60.4,37.274H55.869a.563.563,0,1,1,0-1.125H60.4a.563.563,0,1,1,0,1.125Z" transform="translate(-4.284 -3.57)" fill="#f65314"/>
      <path id="Path_685" data-name="Path 685" d="M47.167,37.274h-11.7a.563.563,0,0,1,0-1.125h11.7a.563.563,0,1,1,0,1.125Z" transform="translate(1.647 -3.57)" fill="#f65314"/>
    </g>
  </g>
</svg>
