<svg xmlns="http://www.w3.org/2000/svg" xmlns:xlink="http://www.w3.org/1999/xlink" width="60" height="60" viewBox="0 0 60 60">
  <defs>
    <clipPath id="clip-path">
      <rect id="Rectangle_168" data-name="Rectangle 168" width="60" height="60" transform="translate(637 217)" fill="#fff" stroke="#707070" stroke-width="1"/>
    </clipPath>
  </defs>
  <g id="Mask_Group_23" data-name="Mask Group 23" transform="translate(-637 -217)" clip-path="url(#clip-path)">
    <g id="Dashboard" transform="translate(627.207 207.197)">
      <path id="Path_234" data-name="Path 234" d="M32.021,15.96H28.083a.777.777,0,0,1,0-1.554h3.938a.777.777,0,1,1,0,1.554Z" fill="#00a1f1"/>
      <path id="Path_235" data-name="Path 235" d="M39.793,15.96H35.855a.777.777,0,0,1,0-1.554h3.938a.777.777,0,1,1,0,1.554Z" fill="#00a1f1"/>
      <path id="Path_236" data-name="Path 236" d="M47.565,15.96H43.627a.777.777,0,1,1,0-1.554h3.938a.777.777,0,1,1,0,1.554Z" fill="#00a1f1"/>
      <path id="Path_237" data-name="Path 237" d="M19.067,29.793H14.4a.777.777,0,0,1,0-1.554h4.663a.777.777,0,0,1,0,1.554Z" fill="#00a1f1"/>
      <path id="Path_238" data-name="Path 238" d="M19.067,38.083H14.4a.777.777,0,1,1,0-1.554h4.663a.777.777,0,1,1,0,1.554Z" fill="#00a1f1"/>
      <path id="Path_239" data-name="Path 239" d="M19.067,46.373H14.4a.777.777,0,0,1,0-1.554h4.663a.777.777,0,1,1,0,1.554Z" fill="#00a1f1"/>
      <path id="Path_240" data-name="Path 240" d="M16.736,20.518a3.109,3.109,0,1,1,3.109-3.109A3.109,3.109,0,0,1,16.736,20.518Zm0-4.663a1.554,1.554,0,1,0,1.554,1.554A1.554,1.554,0,0,0,16.736,15.855Z" fill="#00a1f1"/>
      <g id="Group_129" data-name="Group 129">
        <path id="Path_241" data-name="Path 241" d="M67.461,9.938H12.124a2.334,2.334,0,0,0-2.332,2.332V54.591a2.334,2.334,0,0,0,2.332,2.332H33.467a6.249,6.249,0,0,1-1.78,6.16l-1.06.99H28.29a2.8,2.8,0,0,0,0,5.6H51.3a2.8,2.8,0,1,0,0-5.6H48.959l-1.06-.99a6.249,6.249,0,0,1-1.78-6.16H67.461a2.334,2.334,0,0,0,2.332-2.332V12.269a2.334,2.334,0,0,0-2.332-2.332Zm.777,2.332V18.5H24.87V11.492H67.461A.777.777,0,0,1,68.238,12.269ZM11.347,54.591V12.269a.777.777,0,0,1,.777-.777H23.316V55.245a.777.777,0,0,0,.012.124h-11.2a.777.777,0,0,1-.777-.779ZM52.539,66.87A1.244,1.244,0,0,1,51.3,68.114H28.29a1.244,1.244,0,1,1,0-2.487H51.3A1.244,1.244,0,0,1,52.539,66.87Zm-5.854-2.8H32.9a7.8,7.8,0,0,0,2.165-7.15H44.52a7.8,7.8,0,0,0,2.165,7.15Zm20.776-8.7h-42.6a.778.778,0,0,0,.012-.124V20.052H68.238V54.591A.777.777,0,0,1,67.461,55.368Z" fill="#00a1f1" opacity="0.4"/>
        <path id="Path_242" data-name="Path 242" d="M36.787,22.642a7.889,7.889,0,0,0-5.1,1.863.777.777,0,0,0-.13.1.351.351,0,0,0-.025.031,7.922,7.922,0,1,0,5.254-2Zm6.321,7.15h-2.2a4.186,4.186,0,0,0-6.026-2.958L33.3,25.246a6.361,6.361,0,0,1,9.814,4.547Zm-6.321,3.42A2.642,2.642,0,1,1,39.43,30.57,2.642,2.642,0,0,1,36.787,33.212ZM30.414,30.57a6.342,6.342,0,0,1,1.694-4.312L33.646,27.8a4.187,4.187,0,0,0,2.363,6.9v2.2a6.379,6.379,0,0,1-5.6-6.321Zm7.15,6.321v-2.2a4.205,4.205,0,0,0,3.345-3.345h2.2A6.38,6.38,0,0,1,37.565,36.891Z" fill="#00a1f1"/>
        <path id="Path_243" data-name="Path 243" d="M49.534,26.477h3.834a.777.777,0,1,0,0-1.554H49.534a.777.777,0,1,0,0,1.554Z" fill="#00a1f1"/>
        <path id="Path_244" data-name="Path 244" d="M63.212,29.067H49.534a.777.777,0,0,0,0,1.554H63.212a.777.777,0,0,0,0-1.554Z" fill="#00a1f1"/>
        <path id="Path_245" data-name="Path 245" d="M59.948,33.99a.777.777,0,0,0-.777-.777H49.534a.777.777,0,0,0,0,1.554h9.637a.777.777,0,0,0,.777-.777Z" fill="#00a1f1"/>
        <path id="Path_246" data-name="Path 246" d="M33.878,40.724H30.052a.777.777,0,0,0-.777.777v8.862a.777.777,0,0,0,.777.777h3.826a.777.777,0,0,0,.777-.777V41.5A.777.777,0,0,0,33.878,40.724ZM33.1,49.585H30.829V42.278H33.1Z" fill="#00a1f1"/>
        <path id="Path_247" data-name="Path 247" d="M41.212,44.3H37.386a.777.777,0,0,0-.777.777v5.285a.777.777,0,0,0,.777.777h3.826a.777.777,0,0,0,.777-.777V45.078A.777.777,0,0,0,41.212,44.3Zm-.777,5.285H38.163V45.855h2.272Z" fill="#00a1f1"/>
        <path id="Path_248" data-name="Path 248" d="M48.545,46.373H44.719a.777.777,0,0,0-.777.777v3.212a.777.777,0,0,0,.777.777h3.826a.777.777,0,0,0,.777-.777V47.15a.777.777,0,0,0-.777-.777Zm-.777,3.212H45.5V47.928h2.272Z" fill="#00a1f1"/>
        <path id="Path_249" data-name="Path 249" d="M55.879,42.746H52.053a.777.777,0,0,0-.777.777v6.839a.777.777,0,0,0,.777.777h3.826a.777.777,0,0,0,.777-.777V43.523a.777.777,0,0,0-.777-.777ZM55.1,49.585H52.83V44.3H55.1Z" fill="#00a1f1"/>
        <path id="Path_250" data-name="Path 250" d="M63.212,40.724H59.386a.777.777,0,0,0-.777.777v8.862a.777.777,0,0,0,.777.777h3.826a.777.777,0,0,0,.777-.777V41.5A.777.777,0,0,0,63.212,40.724Zm-.777,8.862H60.163V42.278h2.272Z" fill="#00a1f1"/>
      </g>
    </g>
  </g>
</svg>
